<mxfile host="app.diagrams.net" modified="2024-05-21T16:25:15.735Z" agent="Mozilla/5.0 (X11; Ubuntu; Linux x86_64; rv:126.0) Gecko/20100101 Firefox/126.0" version="24.4.4" etag="RVMsVi26VXUI8X7p3W6r" type="github">
  <diagram name="Page-1" id="GL3Q2NH63mA6xGYhGsNS">
    <mxGraphModel>
      <root>
        <mxCell id="0" />
        <mxCell id="1" parent="0" />
      </root>
    </mxGraphModel>
  </diagram>
</mxfile>
